<svg width="339" height="382" viewBox="0 0 339 382" fill="none" xmlns="http://www.w3.org/2000/svg">
<path d="M13.7305 323.994V229.326C13.9714 216.8 19.2708 204.997 29.6289 193.916C42.1549 180.667 58.1738 174.043 77.6855 174.043V220.293C67.5684 221.016 62.028 224.268 61.0645 230.049V323.994C61.0645 329.775 65.2799 333.027 73.7109 333.75C75.1562 333.991 76.6016 334.111 78.0469 334.111V380C52.513 380 33.724 370.003 21.6797 350.01C16.3802 341.097 13.7305 332.425 13.7305 323.994ZM94.3066 220.654V174.043C113.337 174.043 128.753 181.39 140.557 196.084C148.988 206.442 153.203 218.125 153.203 231.133L109.121 248.115V236.191C108.639 226.074 103.701 220.895 94.3066 220.654ZM94.3066 380.361V333.75C104.665 333.75 110.687 330.98 112.373 325.439C113.096 323.271 113.457 320.742 113.457 317.852V305.928L157.539 322.91C157.78 339.29 150.312 353.623 135.137 365.908C122.611 376.025 109.001 380.843 94.3066 380.361Z" fill="#081A59"/>
<path d="M167.35 274C169.383 274.433 171.017 275.45 172.25 277.05C173.483 278.617 174.1 280.417 174.1 282.45C174.1 285.383 173.067 287.717 171 289.45C168.967 291.15 166.117 292 162.45 292H146.1V256.9H161.9C165.467 256.9 168.25 257.717 170.25 259.35C172.283 260.983 173.3 263.2 173.3 266C173.3 268.067 172.75 269.783 171.65 271.15C170.583 272.517 169.15 273.467 167.35 274ZM154.65 271.1H160.25C161.65 271.1 162.717 270.8 163.45 270.2C164.217 269.567 164.6 268.65 164.6 267.45C164.6 266.25 164.217 265.333 163.45 264.7C162.717 264.067 161.65 263.75 160.25 263.75H154.65V271.1ZM160.95 285.1C162.383 285.1 163.483 284.783 164.25 284.15C165.05 283.483 165.45 282.533 165.45 281.3C165.45 280.067 165.033 279.1 164.2 278.4C163.4 277.7 162.283 277.35 160.85 277.35H154.65V285.1H160.95ZM187.459 256.9V277.9C187.459 280 187.976 281.617 189.009 282.75C190.042 283.883 191.559 284.45 193.559 284.45C195.559 284.45 197.092 283.883 198.159 282.75C199.226 281.617 199.759 280 199.759 277.9V256.9H208.309V277.85C208.309 280.983 207.642 283.633 206.309 285.8C204.976 287.967 203.176 289.6 200.909 290.7C198.676 291.8 196.176 292.35 193.409 292.35C190.642 292.35 188.159 291.817 185.959 290.75C183.792 289.65 182.076 288.017 180.809 285.85C179.542 283.65 178.909 280.983 178.909 277.85V256.9H187.459ZM227.463 256.9C231.163 256.9 234.396 257.633 237.163 259.1C239.93 260.567 242.063 262.633 243.563 265.3C245.096 267.933 245.863 270.983 245.863 274.45C245.863 277.883 245.096 280.933 243.563 283.6C242.063 286.267 239.913 288.333 237.113 289.8C234.346 291.267 231.13 292 227.463 292H214.313V256.9H227.463ZM226.913 284.6C230.146 284.6 232.663 283.717 234.463 281.95C236.263 280.183 237.163 277.683 237.163 274.45C237.163 271.217 236.263 268.7 234.463 266.9C232.663 265.1 230.146 264.2 226.913 264.2H222.863V284.6H226.913ZM263.791 256.9C267.491 256.9 270.724 257.633 273.491 259.1C276.258 260.567 278.391 262.633 279.891 265.3C281.424 267.933 282.191 270.983 282.191 274.45C282.191 277.883 281.424 280.933 279.891 283.6C278.391 286.267 276.241 288.333 273.441 289.8C270.674 291.267 267.458 292 263.791 292H250.641V256.9H263.791ZM263.241 284.6C266.474 284.6 268.991 283.717 270.791 281.95C272.591 280.183 273.491 277.683 273.491 274.45C273.491 271.217 272.591 268.7 270.791 266.9C268.991 265.1 266.474 264.2 263.241 264.2H259.191V284.6H263.241ZM317.069 256.9L304.919 280.4V292H296.369V280.4L284.219 256.9H293.919L300.719 271.6L307.469 256.9H317.069Z" fill="#081A59"/>
<ellipse cx="68" cy="273.5" rx="20" ry="22.5" fill="white"/>
<g clip-path="url(#clip0_107_10)">
<path d="M97.4887 253.652L83.5738 262.533C81.2594 264.005 80.8138 266.656 82.5675 268.548C84.4219 270.564 88.03 270.961 90.5169 269.432L104.791 260.686C105.798 260.075 107.235 260.211 108.026 261.004C108.816 261.796 108.629 262.929 107.623 263.552L104.619 265.387L130.091 283.875H136.1C139.909 283.875 143 281.439 143 278.437V263.937C143 260.936 139.909 258.5 136.1 258.5H125.175H124.6H124.499L123.939 258.217L113.502 252.949C111.303 251.839 108.73 251.25 106.114 251.25C102.98 251.25 99.9325 252.1 97.4887 253.652ZM100.766 267.744L93.3344 272.298C88.8062 275.084 82.2369 274.359 78.8444 270.689C75.6531 267.234 76.4581 262.408 80.67 259.723L92.63 252.1C90.9625 251.545 89.1656 251.261 87.34 251.261C84.6375 251.25 82.0069 251.884 79.75 253.062L69.4 258.5H57.9C54.0906 258.5 51 260.936 51 263.937V278.437C51 281.439 54.0906 283.875 57.9 283.875H73.4537L86.5925 293.323C89.41 295.35 93.7656 295.192 96.3387 292.971C97.1294 292.28 97.6612 291.476 97.9344 290.638L100.378 292.405C103.181 294.433 107.551 294.286 110.124 292.077C110.771 291.521 111.246 290.876 111.548 290.207C114.336 291.68 118.131 291.374 120.474 289.358C123.047 287.149 122.861 283.705 120.057 281.677L100.766 267.744Z" fill="#081A59"/>
</g>
<path d="M206.609 322H312L220.391 305H115L206.609 322Z" fill="#081A59"/>
<defs>
<clipPath id="clip0_107_10">
<rect width="92" height="58" fill="white" transform="translate(51 244)"/>
</clipPath>
</defs>
</svg>
